<?xml version="1.0" standalone="no"?><!DOCTYPE svg PUBLIC "-//W3C//DTD SVG 1.1//EN" "http://www.w3.org/Graphics/SVG/1.1/DTD/svg11.dtd"><svg t="1769517733656" class="icon" viewBox="0 0 1024 1024" version="1.1" xmlns="http://www.w3.org/2000/svg" p-id="4918" xmlns:xlink="http://www.w3.org/1999/xlink" width="256" height="256"><path d="M513.548562 717.516285c-113.864141 0-206.50282-92.638679-206.50282-206.502821s92.638679-206.50282 206.50282-206.50282 206.50282 92.614763 206.50282 206.50282-92.638679 206.50282-206.50282 206.502821z m0-371.152617c-90.785188 0-164.649796 73.864608-164.649796 164.649796s73.864608 164.649796 164.649796 164.649797 164.649796-73.864608 164.649796-164.649797-73.864608-164.649796-164.649796-164.649796z" p-id="4919" fill="#2c2c2c"></path><path d="M610.671493 1024h-197.307112a25.243352 25.243352 0 0 1-25.219437-25.219436v-64.573237c0-19.324139-11.240526-36.376257-28.699216-43.431481-3.013418-1.195801-6.086625-2.511181-9.112002-3.826562a46.492731 46.492731 0 0 0-51.299849 9.972977l-43.132531 42.582463a25.243352 25.243352 0 0 1-35.658776-0.251118L81.697103 798.770941a25.111814 25.111814 0 0 1-7.25851-17.93701 25.111814 25.111814 0 0 1 7.509628-17.781556l43.048825-42.438967a46.791681 46.791681 0 0 0 10.49913-51.598799q-0.860976-2.056777-1.698037-4.113554a46.719933 46.719933 0 0 0-43.586935-29.093831H25.243352A25.243352 25.243352 0 0 1 0 610.635619v-197.307112a25.243352 25.243352 0 0 1 25.219436-25.219437h64.178623a46.767765 46.767765 0 0 0 43.706515-29.380823c1.721953-4.304882 3.587402-8.633681 5.416977-12.878773a46.851471 46.851471 0 0 0-9.626195-52.053204l-43.335817-43.957633a25.243352 25.243352 0 0 1 0.251118-35.658776L226.30528 75.694183a25.111814 25.111814 0 0 1 17.93701-7.25851 25.111814 25.111814 0 0 1 17.781556 7.509628l44.902316 45.548049a46.636227 46.636227 0 0 0 51.096563 10.43934l0.884892-0.358741a46.983009 46.983009 0 0 0 29.309075-43.682599V25.231394A25.243352 25.243352 0 0 1 413.388297 0h197.307112a25.243352 25.243352 0 0 1 25.195521 25.231394v61.44024a46.875387 46.875387 0 0 0 29.572151 43.790221c3.766772 1.506709 7.581376 3.097124 11.33619 4.783202a46.863429 46.863429 0 0 0 51.814044-9.674027l46.636227-45.930704a25.243352 25.243352 0 0 1 35.658776 0.251118l138.473719 140.410916a25.111814 25.111814 0 0 1 7.25851 17.93701 25.111814 25.111814 0 0 1-7.509628 17.781557l-46.743849 46.086158a46.636227 46.636227 0 0 0-10.582836 51.419429q1.195801 2.726426 2.236148 5.476767a46.636227 46.636227 0 0 0 43.646725 29.213411h61.117373a25.243352 25.243352 0 0 1 25.219436 25.219437v197.307113a25.243352 25.243352 0 0 1-25.219436 25.219436h-61.894644a46.528605 46.528605 0 0 0-43.515187 28.866628c-1.004473 2.475307-2.044819 4.986489-3.109082 7.473755a46.636227 46.636227 0 0 0 10.02081 51.180269l45.189308 45.83504a25.243352 25.243352 0 0 1-0.251118 35.658777L804.773861 943.379118a25.111814 25.111814 0 0 1-17.697851 7.25851h-0.23916a25.111814 25.111814 0 0 1-17.781556-7.521586l-43.802179-44.423996c-13.488632-13.67996-34.164026-17.93701-51.419429-10.582836-2.965586 1.255591-5.979003 2.499223-8.980464 3.695024-17.33911 6.887812-28.986209 24.406292-28.986208 43.574977v63.377437a25.243352 25.243352 0 0 1-25.195521 25.243352z m-180.649609-41.853024h164.016022v-46.755807c0-36.723039 21.739656-69.093364 55.37753-82.510247 2.690552-1.064263 5.405019-2.188315 8.059696-3.312368 33.482419-14.241986 71.748041-6.505156 97.637126 19.706795l32.131165 32.585569 116.781894-115.119732-33.482419-33.984655a88.297923 88.297923 0 0 1-18.690365-97.027268q1.423003-3.336284 2.786216-6.708442a88.202258 88.202258 0 0 1 82.306961-55.006831h45.261056V429.98601h-44.483785a88.274007 88.274007 0 0 1-82.510248-55.521026q-0.980557-2.463349-2.008945-4.914741a88.369671 88.369671 0 0 1 19.826376-97.314259l34.893464-34.403186-115.155606-116.793853-34.67822 34.247732a88.489251 88.489251 0 0 1-98.007824 18.224002c-3.372158-1.470835-6.792148-2.893838-10.176264-4.245092a88.489251 88.489251 0 0 1-55.91564-82.653743V41.853024H430.021884v46.038326a88.692537 88.692537 0 0 1-55.353614 82.426541l-0.77727 0.322867a88.321839 88.321839 0 0 1-96.859855-19.754628L243.811802 117.188467l-116.793853 115.155606 31.700676 32.047458a88.489251 88.489251 0 0 1 18.128338 98.330691c-1.674121 3.814604-3.312368 7.700956-4.854951 11.551434a88.417503 88.417503 0 0 1-82.510247 55.67648H41.853024v164.051896h48.322306a88.405545 88.405545 0 0 1 82.402625 55.19816q0.753354 1.853491 1.518667 3.695024a88.489251 88.489251 0 0 1-19.718754 97.565377l-31.210398 30.767952 115.155606 116.793853 31.389768-30.947322a88.142468 88.142468 0 0 1 97.397966-18.558826c2.714468 1.195801 5.464809 2.391601 8.167319 3.431948 33.267175 13.50059 54.767671 45.77525 54.767671 82.211297z" p-id="4920" fill="#2c2c2c"></path></svg>